PathFileType	4	(X/Y/Z)	/Users/itak/Documents/Research/Walk-IL/dataset/trc/00447_00167.trc
DataRate	CameraRate	NumFrames	NumMarkers	Units	OrigDataRate	OrigDataStartFrame	OrigNumFrames
100.000000	100.000000	4	55	mm	100.000000	73	294
Frame#	Time	RPSI			LPSI			L3			STRN			T10			C7			CLAV			RBAK			LBAK			LSHO			LUPA			LAEL			LAOL			LWTS			LWPS			LFRA			LIFD			LHPS			LHTS			RSHO			RUPA			RAEL			RAOL			RWTS			RWPS			RFRA			RIFD			RHTS			RHPS			RBHD			LFHD			RFHD			LBHD			LHIP			RHIP			RASI			LASI			LKNE			LTHI			LANK			LTIP			LTOE			LMT1			LMT5			LHEE			RKNE			RTHI			RANK			RTIP			RTOE			RMT1			RMT5			RHEE			*53			*54			
		X1	Y1	Z1	X2	Y2	Z2	X3	Y3	Z3	X4	Y4	Z4	X5	Y5	Z5	X6	Y6	Z6	X7	Y7	Z7	X8	Y8	Z8	X9	Y9	Z9	X10	Y10	Z10	X11	Y11	Z11	X12	Y12	Z12	X13	Y13	Z13	X14	Y14	Z14	X15	Y15	Z15	X16	Y16	Z16	X17	Y17	Z17	X18	Y18	Z18	X19	Y19	Z19	X20	Y20	Z20	X21	Y21	Z21	X22	Y22	Z22	X23	Y23	Z23	X24	Y24	Z24	X25	Y25	Z25	X26	Y26	Z26	X27	Y27	Z27	X28	Y28	Z28	X29	Y29	Z29	X30	Y30	Z30	X31	Y31	Z31	X32	Y32	Z32	X33	Y33	Z33	X34	Y34	Z34	X35	Y35	Z35	X36	Y36	Z36	X37	Y37	Z37	X38	Y38	Z38	X39	Y39	Z39	X40	Y40	Z40	X41	Y41	Z41	X42	Y42	Z42	X43	Y43	Z43	X44	Y44	Z44	X45	Y45	Z45	X46	Y46	Z46	X47	Y47	Z47	X48	Y48	Z48	X49	Y49	Z49	X50	Y50	Z50	X51	Y51	Z51	X52	Y52	Z52	X53	Y53	Z53	X54	Y54	Z54	X55	Y55	Z55	

74	0.73	-1508.455322265625	948.5665283203125	-587.303955078125	-1434.415649414062	954.3907470703125	-708.3395385742188	-1457.865112304688	1045.192138671875	-624.5076293945312	-1188.872802734375	1211.807250976562	-498.8309631347656	-1456.393310546875	1170.545166015625	-627.9255981445312	-1373.495483398438	1428.560302734375	-573.8822631835938	-1207.46728515625	1329.310180664062	-513.638427734375	-1482.857055664062	1319.351928710938	-522.4999389648438	-1365.228149414062	1383.046630859375	-677.2973022460938	-1237.21484375	1397.3291015625	-710.0291137695312	-1214.628540039062	1283.594116210938	-811.4359741210938	-1196.93017578125	1067.266357421875	-848.0737915039062	-1297.605102539062	1058.867797851562	-825.1439208984375	-1149.2060546875	868.8351440429688	-774.799560546875	-1168.630493164062	849.8357543945312	-844.7265625	-1176.4580078125	979.59521484375	-849.2877807617188	-1136.534912109375	703.5452880859375	-765.9465942382812	-1155.172729492188	769.3592529296875	-838.3146362304688	-1123.471069335938	783.7469482421875	-774.5136108398438	-1382.903076171875	1393.149047851562	-400.1936950683594	-1438.131225585938	1335.142822265625	-344.0705261230469	-1494.760864257812	1057.889282226562	-289.5235900878906	-1531.895629882812	1044.081420898438	-344.888427734375	-1397.046752929688	852.5196533203125	-289.8999633789062	-1480.943237304688	841.0658569335938	-265.7326049804688	-1498.271606445312	999.4098510742188	-278.7353515625	-1403.542602539062	693.9403076171875	-273.7519226074219	-1392.350830078125	753.5595092773438	-266.8807983398438	-1467.406494140625	756.0662841796875	-254.1484832763672	-1326.158569335938	1614.517944335938	-458.1139221191406	-1139.926147460938	1629.699462890625	-550.3189086914062	-1191.755249023438	1629.60400390625	-429.4020690917969	-1271.908935546875	1618.937255859375	-627.5056762695312	-1270.911499023438	835.980712890625	-750.68798828125	-1480.003051757812	839.1257934570312	-408.1203002929688	-1358.687133789062	873.2252197265625	-418.7101440429688	-1219.371704101562	863.0182495117188	-633.3023071289062	-1352.838256835938	418.0730590820312	-730.920654296875	-1292.928588867188	563.2728881835938	-729.5328979492188	-1525.451782226562	31.58091354370117	-804.9094848632812	-1400.338256835938	269.9446411132812	-760.3641357421875	-1361.071044921875	56.64702224731445	-639.8309936523438	-1439.145385742188	52.11859893798828	-644.4957275390625	-1390.47412109375	52.3315544128418	-746.4619750976562	-1598.290283203125	32.95783615112305	-785.0994873046875	-1407.836181640625	459.7806091308594	-362.2020568847656	-1429.208984375	713.2071533203125	-368.3917541503906	-1646.513305664062	95.58861541748047	-448.8619995117188	-1486.484130859375	336.3340148925781	-373.3661804199219	-1448.992431640625	47.88483810424805	-399.7529602050781	-1480.369873046875	58.93000030517578	-459.3474426269531	-1547.083984375	50.38694381713867	-375.7922668457031	-1680.212280273438	115.4878082275391	-520.1677856445312	nan	nan	nan	nan	nan	nan	
75	0.74	-1503.947998046875	946.979248046875	-585.0155029296875	-1429.922485351562	953.5435791015625	-706.1060791015625	-1452.576782226562	1044.644653320312	-623.1337890625	-1182.396484375	1208.81787109375	-495.4598999023438	-1449.474853515625	1169.877075195312	-626.507080078125	-1364.377807617188	1426.99658203125	-571.6251220703125	-1199.860107421875	1326.508422851562	-510.2035522460938	-1475.01025390625	1318.832153320312	-521.2203979492188	-1355.679565429688	1381.557495117188	-675.1461181640625	-1227.356079101562	1394.700439453125	-706.6622924804688	-1204.083984375	1281.182495117188	-808.0499267578125	-1185.645141601562	1065.153564453125	-845.2595825195312	-1286.62890625	1056.233642578125	-823.678466796875	-1136.823974609375	867.6404418945312	-770.0110473632812	-1155.298461914062	847.9522705078125	-839.9877319335938	-1164.30078125	977.6354370117188	-845.6836547851562	-1123.430786132812	702.3320922851562	-759.6768798828125	-1141.413330078125	767.5716552734375	-832.7861938476562	-1110.525146484375	782.6068725585938	-768.6845092773438	-1375.4169921875	1391.716064453125	-398.0527648925781	-1431.702026367188	1334.320190429688	-342.5106811523438	-1492.865600585938	1057.96044921875	-288.7788696289062	-1529.534423828125	1045.005126953125	-344.7488098144531	-1399.976440429688	850.2993774414062	-288.3003540039062	-1484.4453125	840.8588256835938	-265.3291015625	-1497.821655273438	999.5477294921875	-278.158935546875	-1410.693725585938	691.8797607421875	-272.4149780273438	-1398.070190429688	751.1923217773438	-265.3357849121094	-1473.205322265625	755.5599975585938	-253.6661529541016	-1317.475341796875	1612.191162109375	-455.5137939453125	-1131.13134765625	1627.522216796875	-547.520751953125	-1183.230712890625	1627.6005859375	-426.6577758789062	-1263.03369140625	1616.380859375	-624.87109375	-1267.068359375	834.9093627929688	-749.0275268554688	-1474.541259765625	837.956787109375	-405.1422424316406	-1353.917724609375	872.4234619140625	-416.8588562011719	-1215.1103515625	861.1434326171875	-631.5777587890625	-1351.828491210938	417.5416870117188	-731.1810913085938	-1290.901489257812	562.339599609375	-729.1483154296875	-1525.452026367188	31.55855751037598	-805.0660400390625	-1399.717895507812	269.696044921875	-760.6942138671875	-1360.958862304688	56.63158416748047	-640.2225341796875	-1438.926635742188	52.11408233642578	-644.6598510742188	-1390.260131835938	52.01676940917969	-746.7740478515625	-1598.231689453125	32.88462066650391	-785.1736450195312	-1392.605712890625	460.94580078125	-354.1471557617188	-1420.623168945312	713.2909545898438	-364.1652221679688	-1640.640869140625	104.2728271484375	-446.3482666015625	-1473.231323242188	339.1322326660156	-366.6172180175781	-1445.993286132812	48.19659423828125	-398.3871154785156	-1476.02734375	61.00133895874023	-457.89111328125	-1543.334716796875	52.96681594848633	-374.9750671386719	-1673.509155273438	127.2604751586914	-516.958984375	nan	nan	nan	nan	nan	nan	
76	0.75	-1499.349487304688	945.3355102539062	-582.3697509765625	-1425.431884765625	952.636962890625	-703.5748901367188	-1447.24755859375	1044.00390625	-621.55712890625	-1175.755249023438	1205.67333984375	-491.9183654785156	-1442.395874023438	1169.081420898438	-624.906005859375	-1355.012573242188	1425.310180664062	-569.18798828125	-1192.046630859375	1323.54833984375	-506.5987548828125	-1466.925659179688	1318.216552734375	-519.7860717773438	-1345.900512695312	1379.920043945312	-672.8226928710938	-1217.3173828125	1391.886962890625	-703.1179809570312	-1193.307373046875	1278.578002929688	-804.4696655273438	-1173.883422851562	1062.91015625	-842.2689208984375	-1275.162719726562	1053.305297851562	-822.0947265625	-1123.589599609375	866.5941162109375	-764.7532348632812	-1141.122924804688	846.0623779296875	-834.70361328125	-1151.525634765625	975.6030883789062	-841.75830078125	-1109.075561523438	701.3110961914062	-752.7996826171875	-1126.6640625	765.8666381835938	-826.6514282226562	-1096.522094726562	781.6675415039062	-762.3040771484375	-1367.705200195312	1390.173828125	-395.7406311035156	-1425.0927734375	1333.448974609375	-340.81494140625	-1491.087890625	1058.1259765625	-287.9764709472656	-1527.275146484375	1046.089599609375	-344.5241394042969	-1403.397705078125	848.14306640625	-286.7757263183594	-1488.375732421875	840.8474731445312	-264.9639282226562	-1497.570922851562	999.828857421875	-277.5628967285156	-1418.549682617188	689.99755859375	-271.3102416992188	-1404.423095703125	748.947509765625	-263.9619140625	-1479.554321289062	755.2714233398438	-253.3306884765625	-1308.549560546875	1609.724731445312	-452.7836608886719	-1122.100463867188	1625.218139648438	-544.5821533203125	-1174.48486328125	1625.486572265625	-423.7850036621094	-1253.891235351562	1613.654663085938	-622.1106567382812	-1263.29443359375	833.84521484375	-747.2639770507812	-1468.86328125	836.8457641601562	-401.7677612304688	-1348.925415039062	871.5887451171875	-414.7963256835938	-1210.776000976562	859.1835327148438	-629.7185668945312	-1350.87744140625	417.0191955566406	-731.3631591796875	-1288.877319335938	561.3980712890625	-728.6654052734375	-1525.424194335938	31.52683258056641	-805.2161254882812	-1399.137573242188	269.4659423828125	-760.9832763671875	-1360.8076171875	56.51488876342773	-640.5458374023438	-1438.711669921875	52.06691360473633	-644.8024291992188	-1389.991333007812	51.65838623046875	-747.03955078125	-1598.186279296875	32.8798713684082	-785.243896484375	-1377.241333007812	462.3202819824219	-346.047119140625	-1411.872680664062	713.4904174804688	-359.57177734375	-1633.48583984375	112.8878021240234	-443.3104248046875	-1459.411987304688	341.9485168457031	-359.7052001953125	-1441.487915039062	49.01377487182617	-396.421630859375	-1470.3779296875	63.7321891784668	-455.8810119628906	-1538.211059570312	56.16585540771484	-373.5327453613281	-1665.655883789062	138.5426940917969	-513.2125244140625	nan	nan	nan	nan	nan	nan	
77	0.76	-1494.649047851562	943.664794921875	-579.3453979492188	-1420.942016601562	951.6754760742188	-700.7296142578125	-1441.872436523438	1043.275146484375	-619.7291870117188	-1168.92529296875	1202.382446289062	-488.208984375	-1435.134521484375	1168.1591796875	-623.0790405273438	-1345.403198242188	1423.5048828125	-566.5562744140625	-1184.014770507812	1320.438842773438	-502.8228149414062	-1458.595458984375	1317.495849609375	-518.1654052734375	-1335.901611328125	1378.134399414062	-670.302001953125	-1207.110229492188	1388.8994140625	-699.3939819335938	-1182.337158203125	1275.794799804688	-800.7003173828125	-1161.6796875	1060.559448242188	-839.1029052734375	-1263.208618164062	1050.089233398438	-820.3787231445312	-1109.516357421875	865.7832641601562	-758.9923095703125	-1126.128784179688	844.223388671875	-828.8128662109375	-1138.163330078125	973.5350952148438	-837.4879760742188	-1093.445434570312	700.561279296875	-745.2738037109375	-1110.966430664062	764.3187255859375	-819.8564453125	-1081.471435546875	781.004150390625	-755.3427124023438	-1359.7548828125	1388.521606445312	-393.22998046875	-1418.286499023438	1332.528442382812	-338.9615173339844	-1489.392944335938	1058.40087890625	-287.1030883789062	-1525.079223632812	1047.348876953125	-344.19677734375	-1407.27099609375	846.1055297851562	-285.3291015625	-1492.6806640625	841.0765380859375	-264.6270141601562	-1497.48193359375	1000.274475097656	-276.9326782226562	-1427.031005859375	688.3707275390625	-270.449462890625	-1411.346557617188	746.8958129882812	-262.7706909179688	-1486.383422851562	755.2567749023438	-253.1323699951172	-1299.3818359375	1607.139770507812	-449.9131469726562	-1112.838989257812	1622.791381835938	-541.492431640625	-1165.495727539062	1623.266723632812	-420.7738037109375	-1244.484497070312	1610.773315429688	-619.2113037109375	-1259.550415039062	832.7528076171875	-745.3717651367188	-1462.94970703125	835.80322265625	-397.9989013671875	-1343.682250976562	870.7111206054688	-412.5313110351562	-1206.349731445312	857.1412963867188	-627.7313842773438	-1349.96044921875	416.5067443847656	-731.4366455078125	-1286.846557617188	560.4462280273438	-728.06640625	-1525.369995117188	31.48737525939941	-805.3427734375	-1398.605224609375	269.2546997070312	-761.2193603515625	-1360.606323242188	56.29565811157227	-640.7860107421875	-1438.52294921875	51.96799468994141	-644.93017578125	-1389.677734375	51.27061080932617	-747.254638671875	-1598.149536132812	32.94333648681641	-785.3045043945312	-1361.873168945312	463.9067993164062	-337.9868469238281	-1403.00634765625	713.7964477539062	-354.6560974121094	-1624.943725585938	121.1519165039062	-439.7018432617188	-1445.173828125	344.7548828125	-352.7126159667969	-1435.1640625	50.43324279785156	-393.7112426757812	-1463.205688476562	67.08407592773438	-453.1705627441406	-1531.45068359375	59.93410873413086	-371.2741394042969	-1656.593872070312	148.93212890625	-508.9581298828125	nan	nan	nan	nan	nan	nan	
